<svg width="720" height="520" viewBox="0 0 720 520" fill="none" xmlns="http://www.w3.org/2000/svg">
  <defs>
    <linearGradient id="bgGradient" x1="80" y1="40" x2="640" y2="480" gradientUnits="userSpaceOnUse">
      <stop offset="0" stop-color="#F1F7FF" />
      <stop offset="0.5" stop-color="#ECFDF5" />
      <stop offset="1" stop-color="#FFFFFF" />
    </linearGradient>
    <linearGradient id="chartGradient" x1="0" y1="0" x2="0" y2="200" gradientUnits="userSpaceOnUse">
      <stop offset="0" stop-color="#2D7FE6" stop-opacity="0.9" />
      <stop offset="1" stop-color="#53D1B0" stop-opacity="0.8" />
    </linearGradient>
    <linearGradient id="barGradient" x1="0" y1="0" x2="0" y2="1" gradientUnits="objectBoundingBox">
      <stop offset="0" stop-color="#1F9D7A" />
      <stop offset="1" stop-color="#2D7FE6" />
    </linearGradient>
    <linearGradient id="badgeGradient" x1="0" y1="0" x2="200" y2="0" gradientUnits="userSpaceOnUse">
      <stop offset="0" stop-color="#1F9D7A" />
      <stop offset="1" stop-color="#2D7FE6" />
    </linearGradient>
    <filter id="cardShadow" x="-40" y="-40" width="840" height="640" filterUnits="userSpaceOnUse" color-interpolation-filters="sRGB">
      <feDropShadow dx="0" dy="32" stdDeviation="28" flood-color="#0F2547" flood-opacity="0.12" />
    </filter>
  </defs>
  <rect x="20" y="20" width="680" height="480" rx="36" fill="url(#bgGradient)" stroke="rgba(31,157,122,0.15)" stroke-width="1" filter="url(#cardShadow)" />
  <rect x="56" y="64" width="260" height="152" rx="20" fill="#FFFFFF" stroke="rgba(20,61,106,0.12)" />
  <text x="76" y="96" fill="#0F2547" font-size="18" font-weight="700" font-family="'Inter', 'Noto Sans JP', sans-serif">資金繰りサマリー</text>
  <text x="76" y="128" fill="#64748B" font-size="13" font-family="'Inter', 'Noto Sans JP', sans-serif">キャッシュ残高 (予測)</text>
  <rect x="76" y="140" width="180" height="10" rx="5" fill="rgba(45,127,230,0.18)" />
  <rect x="76" y="140" width="128" height="10" rx="5" fill="url(#barGradient)" />
  <text x="76" y="176" fill="#0F2547" font-size="32" font-weight="700" font-family="'Inter', 'Noto Sans JP', sans-serif">¥ 184,200,000</text>
  <text x="76" y="202" fill="#1F9D7A" font-size="13" font-weight="600" font-family="'Inter', 'Noto Sans JP', sans-serif">+13.8% vs. 前四半期</text>
  <line x1="56" y1="232" x2="316" y2="232" stroke="rgba(15,37,71,0.1)" stroke-width="1" stroke-dasharray="4 6" />
  <text x="76" y="258" fill="#64748B" font-size="13" font-family="'Inter', 'Noto Sans JP', sans-serif">調達余力</text>
  <text x="206" y="258" fill="#0F2547" font-size="16" font-weight="600" text-anchor="end" font-family="'Inter', 'Noto Sans JP', sans-serif">¥ 62M</text>
  <text x="76" y="286" fill="#64748B" font-size="13" font-family="'Inter', 'Noto Sans JP', sans-serif">運転資金必要額</text>
  <text x="206" y="286" fill="#0F2547" font-size="16" font-weight="600" text-anchor="end" font-family="'Inter', 'Noto Sans JP', sans-serif">¥ 48M</text>
  <text x="76" y="314" fill="#64748B" font-size="13" font-family="'Inter', 'Noto Sans JP', sans-serif">投資リードタイム</text>
  <text x="206" y="314" fill="#0F2547" font-size="16" font-weight="600" text-anchor="end" font-family="'Inter', 'Noto Sans JP', sans-serif">8.2 週</text>

  <rect x="352" y="84" width="312" height="236" rx="24" fill="#FFFFFF" stroke="rgba(20,61,106,0.12)" />
  <text x="376" y="118" fill="#0F2547" font-size="18" font-weight="700" font-family="'Inter', 'Noto Sans JP', sans-serif">シナリオ比較</text>
  <text x="376" y="146" fill="#64748B" font-size="13" font-family="'Inter', 'Noto Sans JP', sans-serif">EBITDA / キャッシュ残高 推移</text>
  <path d="M376 312C420 264 436 232 480 212C524 192 548 200 592 166C624 142 646 110 664 96" fill="url(#chartGradient)" opacity="0.6" />
  <polyline points="376,308 400,282 424,262 448,246 472,236 496,218 520,204 544,190 568,182 592,170 616,152 640,128" stroke="#2D7FE6" stroke-width="3" stroke-linecap="round" stroke-linejoin="round" fill="none" />
  <polyline points="376,324 400,300 424,284 448,274 472,266 496,250 520,240 544,234 568,220 592,210 616,198 640,184" stroke="#1F9D7A" stroke-width="2.5" stroke-dasharray="6 8" stroke-linecap="round" stroke-linejoin="round" fill="none" />
  <circle cx="520" cy="204" r="7" fill="#2D7FE6" />
  <circle cx="592" cy="210" r="6" fill="#1F9D7A" />
  <rect x="376" y="330" width="140" height="58" rx="16" fill="rgba(45,127,230,0.12)" />
  <rect x="532" y="330" width="120" height="58" rx="16" fill="rgba(31,157,122,0.12)" />
  <text x="390" y="362" fill="#0F2547" font-size="14" font-weight="600" font-family="'Inter', 'Noto Sans JP', sans-serif">ベースライン</text>
  <text x="390" y="380" fill="#2D7FE6" font-size="13" font-weight="600" font-family="'Inter', 'Noto Sans JP', sans-serif">営業CF +12.4%</text>
  <text x="544" y="362" fill="#0F2547" font-size="14" font-weight="600" font-family="'Inter', 'Noto Sans JP', sans-serif">投資加速</text>
  <text x="544" y="380" fill="#1F9D7A" font-size="13" font-weight="600" font-family="'Inter', 'Noto Sans JP', sans-serif">EBITDA +18.7%</text>

  <rect x="56" y="352" width="260" height="136" rx="22" fill="#FFFFFF" stroke="rgba(20,61,106,0.12)" />
  <text x="76" y="386" fill="#0F2547" font-size="17" font-weight="700" font-family="'Inter', 'Noto Sans JP', sans-serif">リスクインサイト</text>
  <rect x="76" y="402" width="220" height="1" fill="rgba(15,37,71,0.08)" />
  <text x="76" y="428" fill="#64748B" font-size="13" font-family="'Inter', 'Noto Sans JP', sans-serif">サプライチェーン遅延</text>
  <text x="292" y="428" text-anchor="end" fill="#F97316" font-size="13" font-weight="600" font-family="'Inter', 'Noto Sans JP', sans-serif">中</text>
  <rect x="76" y="438" width="150" height="6" rx="3" fill="rgba(249,115,22,0.16)" />
  <rect x="76" y="438" width="94" height="6" rx="3" fill="#F97316" />
  <text x="76" y="462" fill="#64748B" font-size="13" font-family="'Inter', 'Noto Sans JP', sans-serif">為替変動</text>
  <text x="292" y="462" text-anchor="end" fill="#E11D48" font-size="13" font-weight="600" font-family="'Inter', 'Noto Sans JP', sans-serif">高</text>
  <rect x="76" y="472" width="180" height="6" rx="3" fill="rgba(225,29,72,0.14)" />
  <rect x="76" y="472" width="142" height="6" rx="3" fill="#E11D48" />

  <rect x="352" y="396" width="312" height="92" rx="22" fill="#0F2547" opacity="0.92" />
  <text x="376" y="430" fill="#F8FAFC" font-size="16" font-weight="600" font-family="'Inter', 'Noto Sans JP', sans-serif">72時間アクションライン</text>
  <text x="376" y="454" fill="rgba(148,163,184,0.9)" font-size="13" font-family="'Inter', 'Noto Sans JP', sans-serif">DAY1: データ収集完了 / DAY2: シナリオ草案 / DAY3: レビューと意思決定</text>
  <rect x="640" y="68" width="80" height="28" rx="14" fill="url(#badgeGradient)" />
  <text x="680" y="88" text-anchor="middle" fill="#FFFFFF" font-size="12" font-weight="600" font-family="'Inter', 'Noto Sans JP', sans-serif">LIVE</text>
</svg>
