<svg width="560" height="120" viewBox="0 0 560 120" fill="none" xmlns="http://www.w3.org/2000/svg">
  <defs>
    <linearGradient id="trustGradient" x1="0" y1="0" x2="560" y2="0" gradientUnits="userSpaceOnUse">
      <stop offset="0" stop-color="#2D7FE6" stop-opacity="0.35" />
      <stop offset="1" stop-color="#1F9D7A" stop-opacity="0.45" />
    </linearGradient>
    <linearGradient id="badgeAccent" x1="0" y1="0" x2="1" y2="1" gradientUnits="objectBoundingBox">
      <stop offset="0" stop-color="#0F2547" stop-opacity="0.85" />
      <stop offset="1" stop-color="#173E6B" stop-opacity="0.7" />
    </linearGradient>
  </defs>
  <rect x="0.5" y="0.5" width="559" height="119" rx="20" fill="rgba(255,255,255,0.92)" stroke="url(#trustGradient)" />
  <g transform="translate(24, 24)">
    <rect width="140" height="72" rx="16" fill="url(#badgeAccent)" opacity="0.92" />
    <text x="20" y="34" fill="#F8FAFC" font-size="16" font-weight="700" font-family="'Inter','Noto Sans JP',sans-serif">METI</text>
    <text x="20" y="56" fill="rgba(226,232,240,0.85)" font-size="11" font-family="'Inter','Noto Sans JP',sans-serif">認定支援機関</text>
    <circle cx="110" cy="36" r="18" fill="rgba(59,130,246,0.24)" stroke="rgba(226,232,240,0.32)" />
    <path d="M110 27L114.5 41H105.5L110 27Z" fill="#38BDF8" />
    <path d="M110 44.5C112.486 44.5 114.5 46.5147 114.5 49C114.5 51.4853 112.486 53.5 110 53.5C107.514 53.5 105.5 51.4853 105.5 49C105.5 46.5147 107.514 44.5 110 44.5Z" fill="#4ADE80" />
  </g>
  <g transform="translate(184, 24)">
    <rect width="172" height="72" rx="16" fill="rgba(15,118,110,0.08)" stroke="rgba(15,118,110,0.3)" />
    <text x="18" y="34" fill="#0F2547" font-size="14" font-weight="700" font-family="'Inter','Noto Sans JP',sans-serif">Regional Bank Alliance</text>
    <text x="18" y="54" fill="#0F766E" font-size="12" font-weight="600" font-family="'Inter','Noto Sans JP',sans-serif">共同伴走 12 行</text>
    <g transform="translate(124,16)">
      <path d="M24 0L48 12V48L24 60L0 48V12L24 0Z" fill="rgba(45,127,230,0.18)" stroke="rgba(15,37,71,0.18)" />
      <path d="M24 12L36 18V42L24 48L12 42V18L24 12Z" fill="#1F9D7A" opacity="0.75" />
      <path d="M24 21L30 24V36L24 39L18 36V24L24 21Z" fill="#F8FAFC" opacity="0.95" />
    </g>
  </g>
  <g transform="translate(376, 24)">
    <rect width="160" height="72" rx="16" fill="rgba(45,127,230,0.08)" stroke="rgba(45,127,230,0.28)" />
    <text x="18" y="33" fill="#0F2547" font-size="14" font-weight="700" font-family="'Inter','Noto Sans JP',sans-serif">Media Featured</text>
    <text x="18" y="55" fill="#1D4ED8" font-size="11" font-family="'Inter','Noto Sans JP',sans-serif">日経BP / 中小企業DX News / J-Net21</text>
    <g transform="translate(116,16)">
      <rect x="0" y="0" width="36" height="36" rx="10" fill="rgba(59,130,246,0.18)" stroke="rgba(59,130,246,0.24)" />
      <path d="M12 26L24 10L32 20" stroke="#2563EB" stroke-width="3" stroke-linecap="round" stroke-linejoin="round" />
      <circle cx="24" cy="24" r="6" fill="#1F9D7A" />
    </g>
  </g>
</svg>
