<svg width="400" height="320" viewBox="0 0 400 320" fill="none" xmlns="http://www.w3.org/2000/svg">
  <defs>
    <linearGradient id="meshGradient" x1="40" y1="20" x2="360" y2="300" gradientUnits="userSpaceOnUse">
      <stop offset="0" stop-color="#5BE2C4" stop-opacity="0.35" />
      <stop offset="0.35" stop-color="#3AA0F3" stop-opacity="0.28" />
      <stop offset="0.72" stop-color="#7C8BFF" stop-opacity="0.22" />
      <stop offset="1" stop-color="#FFFFFF" stop-opacity="0" />
    </linearGradient>
    <radialGradient id="halo" cx="0" cy="0" r="1" gradientUnits="userSpaceOnUse" gradientTransform="translate(180 120) rotate(45) scale(220 180)">
      <stop offset="0" stop-color="#B2F5EA" stop-opacity="0.55" />
      <stop offset="0.6" stop-color="#60A5FA" stop-opacity="0.22" />
      <stop offset="1" stop-color="#FFFFFF" stop-opacity="0" />
    </radialGradient>
    <filter id="blur" x="-20" y="-20" width="440" height="360" filterUnits="userSpaceOnUse" color-interpolation-filters="sRGB">
      <feGaussianBlur stdDeviation="18" />
    </filter>
  </defs>
  <rect width="400" height="320" fill="url(#meshGradient)" />
  <g opacity="0.85" filter="url(#blur)">
    <path d="M40 220C110 120 190 220 260 140C320 70 370 90 400 40V320H40V220Z" fill="url(#halo)" />
  </g>
  <path d="M40 260C110 200 190 280 260 210C320 150 360 170 400 140" stroke="rgba(15,23,42,0.12)" stroke-width="1.2" stroke-linecap="round" />
  <path d="M60 200C120 150 210 250 280 170C320 120 360 130 400 110" stroke="rgba(15,23,42,0.18)" stroke-width="1" stroke-dasharray="6 12" stroke-linecap="round" />
  <circle cx="320" cy="86" r="7" fill="rgba(99,102,241,0.25)" stroke="rgba(15,23,42,0.25)" stroke-width="1" />
  <circle cx="348" cy="186" r="5" fill="rgba(34,197,94,0.32)" stroke="rgba(15,23,42,0.18)" stroke-width="1" />
  <circle cx="288" cy="248" r="6" fill="rgba(14,165,233,0.3)" stroke="rgba(15,23,42,0.18)" stroke-width="1" />
</svg>
