<svg width="560" height="420" viewBox="0 0 560 420" fill="none" xmlns="http://www.w3.org/2000/svg">
  <defs>
    <linearGradient id="panelGradient" x1="0" y1="0" x2="1" y2="1">
      <stop offset="0" stop-color="#E1EEFF" />
      <stop offset="1" stop-color="#F2FBF6" />
    </linearGradient>
    <linearGradient id="arrowGradient" x1="0" y1="0" x2="1" y2="0">
      <stop offset="0" stop-color="#1F9D7A" />
      <stop offset="1" stop-color="#4FA3FF" />
    </linearGradient>
    <linearGradient id="badgeGradient" x1="0" y1="0" x2="1" y2="1">
      <stop offset="0" stop-color="#143D6A" stop-opacity="0.9" />
      <stop offset="1" stop-color="#1A4F8A" stop-opacity="0.75" />
    </linearGradient>
    <filter id="panelShadow" x="-20" y="-20" width="600" height="460" filterUnits="userSpaceOnUse" color-interpolation-filters="sRGB">
      <feDropShadow dx="0" dy="12" stdDeviation="18" flood-color="#143D6A" flood-opacity="0.12" />
    </filter>
  </defs>
  <rect x="32" y="40" width="496" height="340" rx="32" fill="url(#panelGradient)" stroke="#D3E3FF" stroke-width="2" filter="url(#panelShadow)" />
  <rect x="72" y="78" width="120" height="40" rx="18" fill="url(#badgeGradient)" />
  <text x="84" y="104" fill="white" font-size="14" font-weight="600" letter-spacing="0.12em">72H FLOW</text>
  <g font-family="'Inter', 'Segoe UI', sans-serif">
    <g transform="translate(82, 148)">
      <rect width="140" height="96" rx="18" fill="white" stroke="#C7DDF7" stroke-width="2" />
      <text x="20" y="32" fill="#143D6A" font-size="16" font-weight="600">ヒアリング</text>
      <text x="20" y="56" fill="#5C6C80" font-size="12">経営課題・資金計画</text>
      <text x="20" y="76" fill="#5C6C80" font-size="12">想定リスクを整理</text>
    </g>
    <g transform="translate(220, 148)">
      <rect width="140" height="96" rx="18" fill="white" stroke="#B7F0DA" stroke-width="2" />
      <text x="20" y="32" fill="#117B60" font-size="16" font-weight="600">AI草案</text>
      <text x="20" y="56" fill="#4A5A6D" font-size="12">指標優先度の提案</text>
      <text x="20" y="76" fill="#4A5A6D" font-size="12">想定施策と根拠</text>
    </g>
    <g transform="translate(358, 148)">
      <rect width="140" height="96" rx="18" fill="white" stroke="#94C7FD" stroke-width="2" />
      <text x="20" y="32" fill="#143D6A" font-size="16" font-weight="600">専門家レビュー</text>
      <text x="20" y="56" fill="#5C6C80" font-size="12">因果の確認と補強</text>
      <text x="20" y="76" fill="#5C6C80" font-size="12">経営会議用ドキュメント</text>
    </g>
  </g>
  <g stroke="url(#arrowGradient)" stroke-width="10" stroke-linecap="round">
    <path d="M228 196 H218" stroke="#E2F4EB" stroke-width="14" stroke-linecap="round" />
    <path d="M222 196 h-12" />
    <path d="M366 196 H356" stroke="#D5E9FF" stroke-width="14" stroke-linecap="round" />
    <path d="M360 196 h-12" />
  </g>
  <g fill="#143D6A" opacity="0.75" font-size="12" font-weight="500">
    <text x="120" y="272">事実整理メモ</text>
    <text x="258" y="272">AI提案アウトライン</text>
    <text x="400" y="272">承認シナリオ</text>
  </g>
  <g transform="translate(110, 300)" fill="#1A4F8A">
    <text font-size="28" font-weight="700">→</text>
    <text x="28" y="22" font-size="14" font-weight="600" fill="#143D6A">経営計画ドラフト</text>
    <text x="28" y="42" font-size="12" fill="#5C6C80">会議資料・数字シナリオに連結</text>
  </g>
  <g transform="translate(320, 310)">
    <rect width="164" height="62" rx="16" fill="white" stroke="#C7DDF7" stroke-dasharray="6 6" />
    <text x="20" y="28" fill="#143D6A" font-size="13" font-weight="600">次アクションタイムライン</text>
    <text x="20" y="46" fill="#5C6C80" font-size="12">担当・期日・指標を確認</text>
  </g>
  <circle cx="458" cy="112" r="18" fill="#1F9D7A" opacity="0.18" />
  <circle cx="120" cy="340" r="12" fill="#4FA3FF" opacity="0.2" />
  <circle cx="460" cy="320" r="10" fill="#1F9D7A" opacity="0.22" />
</svg>
