<svg width="320" height="200" viewBox="0 0 320 200" fill="none" xmlns="http://www.w3.org/2000/svg">
  <defs>
    <linearGradient id="augmentGradient" x1="28" y1="20" x2="288" y2="188" gradientUnits="userSpaceOnUse">
      <stop offset="0" stop-color="#4B2600"/>
      <stop offset="1" stop-color="#FF8A3D"/>
    </linearGradient>
    <linearGradient id="augmentLine" x1="0" y1="0" x2="1" y2="1">
      <stop offset="0" stop-color="#FFD6B0"/>
      <stop offset="1" stop-color="#FF8A3D"/>
    </linearGradient>
    <radialGradient id="augmentHalo" cx="0" cy="0" r="1" gradientUnits="userSpaceOnUse" gradientTransform="translate(160 94) scale(118 88)">
      <stop offset="0" stop-color="#FFF4EB" stop-opacity="0.92"/>
      <stop offset="1" stop-color="#FFF4EB" stop-opacity="0"/>
    </radialGradient>
  </defs>
  <rect x="14" y="16" width="292" height="172" rx="30" fill="#311504" fill-opacity="0.18"/>
  <rect x="22" y="24" width="276" height="156" rx="28" fill="url(#augmentGradient)" fill-opacity="0.88"/>
  <rect x="48" y="52" width="224" height="112" rx="24" fill="#311504" fill-opacity="0.2"/>
  <ellipse cx="160" cy="94" rx="118" ry="88" fill="url(#augmentHalo)"/>
  <g transform="translate(84 72)">
    <rect x="0" y="0" width="152" height="84" rx="22" fill="#301405" fill-opacity="0.48"/>
    <path d="M32 26C32 19.3726 37.3726 14 44 14H108C114.627 14 120 19.3726 120 26V40C120 46.6274 114.627 52 108 52H44C37.3726 52 32 46.6274 32 40V26Z" fill="#FF8F4A" fill-opacity="0.76"/>
    <path d="M28 60H124" stroke="#FFD4AC" stroke-width="4" stroke-linecap="round"/>
    <path d="M28 68H124" stroke="#FFD4AC" stroke-width="4" stroke-linecap="round" stroke-dasharray="10 12"/>
    <rect x="44" y="22" width="56" height="16" rx="8" fill="#FFE1C7"/>
    <rect x="44" y="22" width="18" height="16" rx="8" fill="#FF8A3D"/>
    <circle cx="28" cy="34" r="8" fill="#FFE1C7"/>
    <circle cx="124" cy="34" r="8" fill="#FFE1C7"/>
  </g>
  <path d="M92 144C96 130 112 122 128 128C144 134 176 152 204 144C232 136 244 124 252 112" stroke="url(#augmentLine)" stroke-width="6" stroke-linecap="round" stroke-linejoin="round"/>
  <circle cx="128" cy="128" r="10" fill="#FFE6D2" stroke="#FFB77A" stroke-width="3"/>
  <circle cx="164" cy="140" r="10" fill="#FFE6D2" stroke="#FFB77A" stroke-width="3"/>
  <circle cx="204" cy="144" r="10" fill="#FFE6D2" stroke="#FFB77A" stroke-width="3"/>
  <rect x="74" y="62" width="52" height="10" rx="5" fill="#FFE6D2" fill-opacity="0.45"/>
  <rect x="132" y="62" width="34" height="10" rx="5" fill="#FFE6D2" fill-opacity="0.3"/>
  <rect x="178" y="62" width="22" height="10" rx="5" fill="#FFE6D2" fill-opacity="0.18"/>
</svg>
