<svg width="320" height="200" viewBox="0 0 320 200" fill="none" xmlns="http://www.w3.org/2000/svg">
  <defs>
    <linearGradient id="riskGradient" x1="24" y1="24" x2="296" y2="184" gradientUnits="userSpaceOnUse">
      <stop offset="0" stop-color="#102745"/>
      <stop offset="1" stop-color="#5B8CFF"/>
    </linearGradient>
    <linearGradient id="riskLine" x1="0" y1="0" x2="1" y2="1">
      <stop offset="0" stop-color="#BFD6FF"/>
      <stop offset="1" stop-color="#3C6FFF"/>
    </linearGradient>
    <radialGradient id="riskHalo" cx="0" cy="0" r="1" gradientUnits="userSpaceOnUse" gradientTransform="translate(160 96) scale(120 90)">
      <stop offset="0" stop-color="#F2F7FF" stop-opacity="0.92"/>
      <stop offset="1" stop-color="#F2F7FF" stop-opacity="0"/>
    </radialGradient>
  </defs>
  <rect x="14" y="18" width="292" height="168" rx="30" fill="#0F1F3B" fill-opacity="0.18"/>
  <rect x="22" y="26" width="276" height="152" rx="26" fill="url(#riskGradient)" fill-opacity="0.85"/>
  <rect x="52" y="56" width="216" height="108" rx="22" fill="#0F1F3B" fill-opacity="0.22"/>
  <path d="M72 134L110 90L148 112L186 84L224 128" stroke="url(#riskLine)" stroke-width="6" stroke-linecap="round" stroke-linejoin="round"/>
  <circle cx="110" cy="90" r="11" fill="#E3EDFF" stroke="#6DA1FF" stroke-width="3"/>
  <circle cx="148" cy="112" r="11" fill="#E3EDFF" stroke="#6DA1FF" stroke-width="3"/>
  <circle cx="186" cy="84" r="11" fill="#E3EDFF" stroke="#6DA1FF" stroke-width="3"/>
  <rect x="88" y="70" width="52" height="10" rx="5" fill="#E3EDFF" fill-opacity="0.45"/>
  <rect x="144" y="70" width="32" height="10" rx="5" fill="#E3EDFF" fill-opacity="0.28"/>
  <rect x="184" y="70" width="22" height="10" rx="5" fill="#E3EDFF" fill-opacity="0.18"/>
  <ellipse cx="160" cy="96" rx="120" ry="90" fill="url(#riskHalo)"/>
  <g transform="translate(88 92)">
    <rect x="0" y="0" width="144" height="64" rx="16" fill="#11264A" fill-opacity="0.55"/>
    <path d="M28 22H116" stroke="#9DB9FF" stroke-width="4" stroke-linecap="round"/>
    <path d="M28 34H116" stroke="#9DB9FF" stroke-width="4" stroke-linecap="round" stroke-dasharray="8 10"/>
    <rect x="20" y="16" width="12" height="32" rx="6" fill="#3E66FF" fill-opacity="0.85"/>
    <rect x="44" y="8" width="12" height="40" rx="6" fill="#7EA4FF" fill-opacity="0.85"/>
    <rect x="68" y="20" width="12" height="28" rx="6" fill="#9DB9FF" fill-opacity="0.85"/>
    <rect x="92" y="12" width="12" height="36" rx="6" fill="#C2D5FF" fill-opacity="0.9"/>
  </g>
  <path d="M248 68L268 52" stroke="#C2D5FF" stroke-width="6" stroke-linecap="round"/>
  <circle cx="272" cy="48" r="10" fill="#C2D5FF"/>
</svg>
