<svg width="320" height="200" viewBox="0 0 320 200" fill="none" xmlns="http://www.w3.org/2000/svg">
  <defs>
    <linearGradient id="scenarioGradient" x1="32" y1="20" x2="288" y2="184" gradientUnits="userSpaceOnUse">
      <stop offset="0" stop-color="#0F2E2B"/>
      <stop offset="1" stop-color="#24BFA0"/>
    </linearGradient>
    <linearGradient id="scenarioLine" x1="0" y1="0" x2="1" y2="1">
      <stop offset="0" stop-color="#9AF2D1"/>
      <stop offset="1" stop-color="#1D9C7F"/>
    </linearGradient>
    <radialGradient id="scenarioHalo" cx="0" cy="0" r="1" gradientUnits="userSpaceOnUse" gradientTransform="translate(160 94) scale(116 84)">
      <stop offset="0" stop-color="#ECFFF9" stop-opacity="0.9"/>
      <stop offset="1" stop-color="#ECFFF9" stop-opacity="0"/>
    </radialGradient>
  </defs>
  <rect x="10" y="14" width="300" height="172" rx="30" fill="#08211F" fill-opacity="0.18"/>
  <rect x="20" y="24" width="280" height="152" rx="26" fill="url(#scenarioGradient)" fill-opacity="0.86"/>
  <g filter="url(#shadow1)">
    <rect x="48" y="52" width="224" height="108" rx="22" fill="#0F2D29" fill-opacity="0.24"/>
  </g>
  <path d="M84 140L120 84L160 120L200 64L236 128" stroke="url(#scenarioLine)" stroke-width="6" stroke-linecap="round" stroke-linejoin="round"/>
  <circle cx="120" cy="84" r="11" fill="#D8FFF1" stroke="#45D9B5" stroke-width="3"/>
  <circle cx="160" cy="120" r="11" fill="#D8FFF1" stroke="#45D9B5" stroke-width="3"/>
  <circle cx="200" cy="64" r="11" fill="#D8FFF1" stroke="#45D9B5" stroke-width="3"/>
  <rect x="72" y="68" width="56" height="10" rx="5" fill="#D8FFF1" fill-opacity="0.45"/>
  <rect x="132" y="68" width="38" height="10" rx="5" fill="#D8FFF1" fill-opacity="0.3"/>
  <rect x="176" y="68" width="24" height="10" rx="5" fill="#D8FFF1" fill-opacity="0.18"/>
  <rect x="64" y="152" width="56" height="12" rx="6" fill="#D8FFF1" fill-opacity="0.4"/>
  <rect x="128" y="152" width="48" height="12" rx="6" fill="#D8FFF1" fill-opacity="0.25"/>
  <rect x="188" y="152" width="44" height="12" rx="6" fill="#D8FFF1" fill-opacity="0.18"/>
  <ellipse cx="160" cy="94" rx="116" ry="84" fill="url(#scenarioHalo)"/>
  <g transform="translate(90 96)">
    <rect x="0" y="0" width="140" height="56" rx="14" fill="#102A26" fill-opacity="0.55"/>
    <rect x="16" y="16" width="32" height="32" rx="10" fill="#1DA688"/>
    <rect x="60" y="16" width="56" height="8" rx="4" fill="#9AF2D1"/>
    <rect x="60" y="30" width="48" height="8" rx="4" fill="#5DD9B5"/>
  </g>
  <defs>
    <filter id="shadow1" x="38" y="44" width="244" height="128" filterUnits="userSpaceOnUse" color-interpolation-filters="sRGB">
      <feFlood flood-opacity="0" result="BackgroundImageFix"/>
      <feGaussianBlur in="BackgroundImageFix" stdDeviation="6"/>
      <feComposite in2="SourceAlpha" operator="in" result="effect1_backgroundBlur"/>
      <feBlend mode="normal" in="SourceGraphic" in2="effect1_backgroundBlur" result="shape"/>
    </filter>
  </defs>
</svg>
