<svg width="320" height="200" viewBox="0 0 320 200" fill="none" xmlns="http://www.w3.org/2000/svg">
  <defs>
    <linearGradient id="realtimeGradient" x1="40" y1="16" x2="276" y2="192" gradientUnits="userSpaceOnUse">
      <stop offset="0" stop-color="#193C6A"/>
      <stop offset="1" stop-color="#3FA5FF" stop-opacity="0.9"/>
    </linearGradient>
    <linearGradient id="pulseGradient" x1="0" y1="0" x2="1" y2="1">
      <stop offset="0" stop-color="#8FE4FF"/>
      <stop offset="1" stop-color="#1F6CD6"/>
    </linearGradient>
    <radialGradient id="haloGradient" cx="0" cy="0" r="1" gradientUnits="userSpaceOnUse" gradientTransform="translate(160 86) scale(124 88)">
      <stop offset="0" stop-color="#F0F9FF" stop-opacity="0.95"/>
      <stop offset="1" stop-color="#F0F6FF" stop-opacity="0"/>
    </radialGradient>
  </defs>
  <rect x="12" y="12" width="296" height="176" rx="32" fill="#0F1D33" fill-opacity="0.16"/>
  <rect x="20" y="20" width="280" height="160" rx="28" fill="url(#realtimeGradient)" fill-opacity="0.82"/>
  <rect x="40" y="44" width="240" height="88" rx="18" fill="#0F1D33" fill-opacity="0.22"/>
  <path d="M60 108C72 80 86 70 96 94C106 118 118 120 132 92C146 64 158 70 166 92C174 114 190 130 204 98C218 66 236 70 248 110" stroke="url(#pulseGradient)" stroke-width="6" stroke-linecap="round" stroke-linejoin="round"/>
  <circle cx="96" cy="94" r="10" fill="#E8F9FF" stroke="#4BC9FF" stroke-width="3"/>
  <circle cx="132" cy="92" r="8" fill="#E0F2FF" stroke="#4BC9FF" stroke-width="2.5"/>
  <circle cx="166" cy="92" r="10" fill="#E8F9FF" stroke="#4BC9FF" stroke-width="3"/>
  <circle cx="204" cy="98" r="9" fill="#E8F9FF" stroke="#4BC9FF" stroke-width="2.5"/>
  <rect x="64" y="152" width="64" height="12" rx="6" fill="#E0F2FF" fill-opacity="0.6"/>
  <rect x="140" y="152" width="48" height="12" rx="6" fill="#E0F2FF" fill-opacity="0.35"/>
  <rect x="200" y="152" width="32" height="12" rx="6" fill="#E0F2FF" fill-opacity="0.18"/>
  <ellipse cx="160" cy="86" rx="124" ry="88" fill="url(#haloGradient)"/>
  <circle cx="160" cy="86" r="34" fill="#0F1D33" fill-opacity="0.2" stroke="#7FDBFF" stroke-width="4"/>
  <path d="M144 86L156 98L180 70" stroke="#7FDBFF" stroke-width="5" stroke-linecap="round" stroke-linejoin="round"/>
  <rect x="210" y="44" width="54" height="20" rx="10" fill="#0F1D33" fill-opacity="0.2" stroke="#7FDBFF" stroke-opacity="0.4"/>
  <circle cx="228" cy="54" r="5" fill="#7FDBFF"/>
  <rect x="240" y="50" width="16" height="8" rx="4" fill="#7FDBFF" fill-opacity="0.4"/>
</svg>
