<svg width="160" height="160" viewBox="0 0 160 160" fill="none" xmlns="http://www.w3.org/2000/svg">
  <defs>
    <linearGradient id="takashimaGradient" x1="20" y1="0" x2="140" y2="160" gradientUnits="userSpaceOnUse">
      <stop stop-color="#f97316" />
      <stop offset="1" stop-color="#6366f1" />
    </linearGradient>
  </defs>
  <rect width="160" height="160" rx="24" fill="url(#takashimaGradient)" opacity="0.9" />
  <circle cx="80" cy="68" r="34" fill="rgba(255,255,255,0.94)" />
  <path d="M80 110c-26 0-42 11-48 32h96c-6-21-22-32-48-32z" fill="rgba(255,255,255,0.9)" />
  <circle cx="62" cy="66" r="6" fill="#1f2937" opacity="0.85" />
  <circle cx="98" cy="66" r="6" fill="#1f2937" opacity="0.85" />
  <path d="M64 84c6 8 26 8 32 0" stroke="#ef4444" stroke-width="3" stroke-linecap="round" opacity="0.85" />
  <path d="M80 36c-14 0-28 12-30 30 10-7 20-11 30-11s20 4 30 11c-2-18-16-30-30-30z" fill="#f97316" opacity="0.35" />
</svg>
