<svg width="160" height="160" viewBox="0 0 160 160" fill="none" xmlns="http://www.w3.org/2000/svg">
  <defs>
    <linearGradient id="sugimotoGradient" x1="0" y1="160" x2="160" y2="0" gradientUnits="userSpaceOnUse">
      <stop stop-color="#06b6d4" />
      <stop offset="1" stop-color="#f472b6" />
    </linearGradient>
  </defs>
  <rect width="160" height="160" rx="24" fill="url(#sugimotoGradient)" opacity="0.9" />
  <circle cx="80" cy="70" r="34" fill="rgba(255,255,255,0.92)" />
  <path d="M80 112c-26 0-42 12-48 32h96c-6-20-22-32-48-32z" fill="rgba(255,255,255,0.88)" />
  <circle cx="64" cy="68" r="6" fill="#1f2937" opacity="0.85" />
  <circle cx="96" cy="68" r="6" fill="#1f2937" opacity="0.85" />
  <path d="M64 88c6 4 26 4 32 0" stroke="#1f2937" stroke-width="3" stroke-linecap="round" />
  <path d="M80 38c-12 0-24 10-26 26 8-6 18-9 26-9s18 3 26 9c-2-16-14-26-26-26z" fill="#f472b6" opacity="0.35" />
</svg>
