<svg width="160" height="160" viewBox="0 0 160 160" fill="none" xmlns="http://www.w3.org/2000/svg">
  <defs>
    <linearGradient id="inoueGradient" x1="0" y1="0" x2="160" y2="160" gradientUnits="userSpaceOnUse">
      <stop stop-color="#0ea5e9" />
      <stop offset="1" stop-color="#22c55e" />
    </linearGradient>
  </defs>
  <rect width="160" height="160" rx="24" fill="url(#inoueGradient)" opacity="0.9" />
  <circle cx="80" cy="70" r="36" fill="rgba(255,255,255,0.94)" />
  <path d="M80 114c-28 0-46 12-52 34h104c-6-22-24-34-52-34z" fill="rgba(255,255,255,0.9)" />
  <circle cx="64" cy="66" r="6" fill="#0f172a" opacity="0.85" />
  <circle cx="96" cy="66" r="6" fill="#0f172a" opacity="0.85" />
  <path d="M64 86c6 6 26 6 32 0" stroke="#0f172a" stroke-width="3" stroke-linecap="round" />
  <path d="M80 40c-12 0-24 10-26 26 8-6 18-10 26-10s18 4 26 10c-2-16-14-26-26-26z" fill="#0ea5e9" opacity="0.35" />
</svg>
