<svg width="720" height="520" viewBox="0 0 720 520" fill="none" xmlns="http://www.w3.org/2000/svg">
  <defs>
    <linearGradient id="bg" x1="80" y1="40" x2="640" y2="480" gradientUnits="userSpaceOnUse">
      <stop offset="0%" stop-color="#F4F9FF" />
      <stop offset="100%" stop-color="#D9E8FF" />
    </linearGradient>
    <linearGradient id="accent" x1="0" y1="0" x2="1" y2="1">
      <stop offset="0%" stop-color="#2A65FF" />
      <stop offset="100%" stop-color="#41C6FF" />
    </linearGradient>
    <linearGradient id="accentWarm" x1="0" y1="0" x2="1" y2="1">
      <stop offset="0%" stop-color="#FF885A" />
      <stop offset="100%" stop-color="#FFC176" />
    </linearGradient>
    <clipPath id="clip-grid">
      <rect x="60" y="60" width="600" height="400" rx="28" />
    </clipPath>
  </defs>
  <rect x="20" y="20" width="680" height="480" rx="36" fill="url(#bg)" />
  <g clip-path="url(#clip-grid)">
    <rect x="60" y="60" width="600" height="400" fill="url(#bg)" />
    <g opacity="0.4">
      <path d="M200 60V460" stroke="#A7C2E8" stroke-width="1.4" stroke-dasharray="6 8" />
      <path d="M360 60V460" stroke="#A7C2E8" stroke-width="1.4" stroke-dasharray="6 8" />
      <path d="M520 60V460" stroke="#A7C2E8" stroke-width="1.4" stroke-dasharray="6 8" />
      <path d="M60 180H660" stroke="#A7C2E8" stroke-width="1.4" stroke-dasharray="6 8" />
      <path d="M60 300H660" stroke="#A7C2E8" stroke-width="1.4" stroke-dasharray="6 8" />
      <path d="M60 420H660" stroke="#A7C2E8" stroke-width="1.4" stroke-dasharray="6 8" />
    </g>
    <g>
      <rect x="90" y="96" width="164" height="112" rx="18" fill="#FFFFFF" opacity="0.92" />
      <rect x="90" y="232" width="164" height="144" rx="18" fill="#FFFFFF" opacity="0.92" />
      <rect x="90" y="400" width="164" height="76" rx="18" fill="#FFFFFF" opacity="0.92" />
      <rect x="274" y="96" width="164" height="180" rx="18" fill="#FFFFFF" opacity="0.92" />
      <rect x="274" y="296" width="164" height="180" rx="18" fill="#FFFFFF" opacity="0.92" />
      <rect x="458" y="96" width="164" height="124" rx="18" fill="#FFFFFF" opacity="0.92" />
      <rect x="458" y="244" width="164" height="116" rx="18" fill="#FFFFFF" opacity="0.92" />
      <rect x="458" y="376" width="164" height="116" rx="18" fill="#FFFFFF" opacity="0.92" />
    </g>
    <g font-family="'Inter', 'Helvetica Neue', Arial, sans-serif" fill="#1F3C88">
      <text x="100" y="128" font-size="18" font-weight="600">IDENTIFY</text>
      <text x="100" y="154" font-size="13" fill="#5C7399">可視化・棚卸</text>
      <text x="100" y="268" font-size="18" font-weight="600">PROTECT</text>
      <text x="100" y="294" font-size="13" fill="#5C7399">多層防御</text>
      <text x="100" y="436" font-size="18" font-weight="600">DETECT</text>
      <text x="100" y="462" font-size="13" fill="#5C7399">監視・検知</text>
      <text x="284" y="128" font-size="18" font-weight="600">RESPOND</text>
      <text x="284" y="154" font-size="13" fill="#5C7399">迅速対応</text>
      <text x="284" y="328" font-size="18" font-weight="600">RECOVER</text>
      <text x="284" y="354" font-size="13" fill="#5C7399">継続改善</text>
      <text x="468" y="128" font-size="18" font-weight="600">ガバナンス</text>
      <text x="468" y="154" font-size="13" fill="#5C7399">ポリシー運用</text>
      <text x="468" y="276" font-size="18" font-weight="600">人・権限</text>
      <text x="468" y="302" font-size="13" fill="#5C7399">ゼロトラスト</text>
      <text x="468" y="408" font-size="18" font-weight="600">監査証跡</text>
      <text x="468" y="434" font-size="13" fill="#5C7399">第三者評価</text>
    </g>
    <g>
      <circle cx="172" cy="200" r="26" fill="url(#accent)" opacity="0.85" />
      <path d="M172 188L178 204L172 200L166 204L172 188Z" fill="white" opacity="0.92" />
      <circle cx="356" cy="260" r="32" fill="url(#accentWarm)" opacity="0.9" />
      <path d="M356 244L364 272L356 266L348 272L356 244Z" fill="white" opacity="0.92" />
      <circle cx="540" cy="330" r="28" fill="url(#accent)" opacity="0.9" />
      <path d="M540 316L548 336L540 332L532 336L540 316Z" fill="white" opacity="0.92" />
    </g>
  </g>
  <rect x="20" y="20" width="680" height="480" rx="36" stroke="rgba(30, 76, 140, 0.18)" stroke-width="2" />
  <text x="60" y="40" font-size="15" font-family="'Inter', 'Helvetica Neue', Arial, sans-serif" fill="#1F3C88" opacity="0.7">
    Zero-Trust Security Lifecycle
  </text>
</svg>
