<svg width="260" height="260" viewBox="0 0 260 260" fill="none" xmlns="http://www.w3.org/2000/svg" role="img" aria-labelledby="title desc">
  <title id="title">導入企業経営者のポートレート</title>
  <desc id="desc">経営者の上半身シルエットと背景の幾何学模様による信頼感のあるイラスト</desc>
  <defs>
    <linearGradient id="portrait-bg" x1="0" y1="0" x2="260" y2="260" gradientUnits="userSpaceOnUse">
      <stop stop-color="#2F6CA3" />
      <stop offset="1" stop-color="#0F8C5A" />
    </linearGradient>
    <linearGradient id="suit" x1="0" y1="0" x2="1" y2="1">
      <stop stop-color="#1F3A5F" />
      <stop offset="1" stop-color="#0D2540" />
    </linearGradient>
  </defs>
  <rect width="260" height="260" rx="32" fill="url(#portrait-bg)" />
  <circle cx="130" cy="94" r="58" fill="#F2F7FC" opacity="0.92" />
  <path d="M130 144c34 0 62 28 62 62H68c0-34 28-62 62-62z" fill="url(#suit)" />
  <path d="M100 96c0 18 12 32 30 32s30-14 30-32c0-18-12-30-30-30s-30 12-30 30z" fill="#F6E6DA" />
  <path d="M90 206c12-18 42-22 40-58" stroke="#F2F7FC" stroke-width="6" stroke-linecap="round" opacity="0.6" />
  <path d="M170 206c-12-18-42-22-40-58" stroke="#F2F7FC" stroke-width="6" stroke-linecap="round" opacity="0.6" />
  <path d="M104 90c4-6 14-10 26-10s22 4 26 10" stroke="#1F3A5F" stroke-width="4" stroke-linecap="round" opacity="0.4" />
  <circle cx="110" cy="102" r="6" fill="#1F3A5F" opacity="0.65" />
  <circle cx="150" cy="102" r="6" fill="#1F3A5F" opacity="0.65" />
  <path d="M118 126c8 6 16 6 24 0" stroke="#BF815C" stroke-width="4" stroke-linecap="round" />
  <path d="M210 52l-20 20" stroke="#F2F7FC" stroke-width="6" stroke-linecap="round" opacity="0.3" />
  <path d="M210 86l-20-20" stroke="#F2F7FC" stroke-width="6" stroke-linecap="round" opacity="0.3" />
  <path d="M70 42l16 16" stroke="#F2F7FC" stroke-width="6" stroke-linecap="round" opacity="0.3" />
  <path d="M70 74l16-16" stroke="#F2F7FC" stroke-width="6" stroke-linecap="round" opacity="0.3" />
</svg>
